<svg width="22" height="22" viewBox="0 0 22 22" fill="none" xmlns="http://www.w3.org/2000/svg">
<g id="Chart">
<path id="Vector 4075" d="M5.7373 16.2633L5.7373 12.0527" stroke="#D3F36B" stroke-width="2" stroke-linecap="round"/>
<path id="Vector 4077" d="M11 16.2636L11 5.7373" stroke="#D3F36B" stroke-width="2" stroke-linecap="round"/>
<path id="Vector 4078" d="M16.2627 16.2631L16.2627 9.94727" stroke="#D3F36B" stroke-width="2" stroke-linecap="round"/>
<path id="Vector" d="M1 11C1 6.28596 1 3.92893 2.46447 2.46447C3.92893 1 6.28596 1 11 1C15.714 1 18.0711 1 19.5355 2.46447C21 3.92893 21 6.28596 21 11C21 15.714 21 18.0711 19.5355 19.5355C18.0711 21 15.714 21 11 21C6.28596 21 3.92893 21 2.46447 19.5355C1 18.0711 1 15.714 1 11Z" stroke="#D3F36B" stroke-width="2" stroke-linejoin="round"/>
</g>
</svg>
