<svg width="46" height="36" viewBox="0 0 46 36" fill="none" xmlns="http://www.w3.org/2000/svg">
<path id="Vector" d="M43 27.495C43 28.035 42.8398 28.59 42.4992 29.13C42.1587 29.67 41.7181 30.18 41.1372 30.66C40.1557 31.47 39.0741 32.055 37.8523 32.43C36.6505 32.805 35.3485 33 33.9464 33C31.9034 33 29.7201 32.64 27.4166 31.905C25.1132 31.17 22.8097 30.18 20.5263 28.935C18.199 27.6602 16.0029 26.2562 13.9564 24.735C11.9309 23.208 10.0628 21.5683 8.36805 19.83C6.72559 18.12 5.40361 16.41 4.44216 14.715C3.48072 13.005 3 11.37 3 9.81C3 8.79 3.24036 7.815 3.72108 6.915C4.2018 6 4.96294 5.16 6.02454 4.41C7.30646 3.465 8.70856 3 10.1908 3C10.7516 3 11.3125 3.09 11.8132 3.27C12.334 3.45 12.7947 3.72 13.1552 4.11L17.8022 9.015C18.1627 9.39 18.4231 9.735 18.6034 10.065C18.7837 10.38 18.8838 10.695 18.8838 10.98C18.8838 11.34 18.7436 11.7 18.4632 12.045C18.2028 12.39 17.8222 12.75 17.3415 13.11L15.8192 14.295C15.5989 14.46 15.4987 14.655 15.4987 14.895C15.4987 15.015 15.5188 15.12 15.5588 15.24C15.6189 15.36 15.679 15.45 15.7191 15.54C16.0796 16.035 16.7006 16.68 17.5819 17.46C18.4832 18.24 19.4447 19.035 20.4862 19.83C21.5679 20.625 22.6094 21.36 23.671 22.035C24.7126 22.695 25.5739 23.145 26.2549 23.415C26.355 23.445 26.4752 23.49 26.6154 23.535C26.7757 23.58 26.9359 23.595 27.1162 23.595C27.4567 23.595 27.7171 23.505 27.9374 23.34L29.4597 22.215C29.9604 21.84 30.4412 21.555 30.9019 21.375C31.3625 21.165 31.8232 21.06 32.324 21.06C32.7046 21.06 33.1052 21.12 33.5458 21.255C33.9865 21.39 34.4472 21.585 34.9479 21.84L41.5779 25.365C42.0987 25.635 42.4592 25.95 42.6795 26.325C42.8798 26.7 43 27.075 43 27.495Z" stroke="#D3F36B" stroke-width="5" stroke-miterlimit="10"/>
</svg>
