<svg width="22" height="22" viewBox="0 0 22 22" fill="none" xmlns="http://www.w3.org/2000/svg">
<g id="store-01">
<path id="Vector 7270" d="M2 9.4209V14.6841C2 17.6613 2 19.15 2.87868 20.0749C3.75736 20.9998 5.17157 20.9998 8 20.9998H14C16.8284 20.9998 18.2426 20.9998 19.1213 20.0749C20 19.15 20 17.6613 20 14.6841V9.4209" stroke="#D3F36B" stroke-width="2" stroke-linecap="round"/>
<path id="Ellipse 1951" d="M14 16.2627C13.3159 16.9019 12.2268 17.3153 11 17.3153C9.77325 17.3153 8.68409 16.9019 8 16.2627" stroke="#D3F36B" stroke-width="2" stroke-linecap="round"/>
<path id="Vector" d="M1.91199 3.87904L0.955699 3.58663L0.955699 3.58663L1.91199 3.87904ZM1.22827 6.11508L2.18456 6.40749H2.18456L1.22827 6.11508ZM20.088 3.87904L19.1317 4.17145V4.17145L20.088 3.87904ZM20.7717 6.11508L19.8154 6.40749L19.8277 6.44757L19.8433 6.48647L20.7717 6.11508ZM8.85202 8.52651C8.4742 8.12369 7.84136 8.10343 7.43853 8.48126C7.03571 8.85909 7.01545 9.49193 7.39328 9.89475L8.85202 8.52651ZM14.6069 8.52597C14.2292 8.12306 13.5963 8.10265 13.1934 8.48038C12.7905 8.85811 12.7701 9.49095 13.1478 9.89386L14.6069 8.52597ZM1.37533 8.44215L2.1999 7.87638L1.37533 8.44215ZM10.1177 7.55489C10.2497 7.01862 9.92205 6.47685 9.38578 6.34479C8.84952 6.21274 8.30774 6.54042 8.17569 7.07669L10.1177 7.55489ZM15.8717 7.55489C16.0038 7.01862 15.6761 6.47685 15.1398 6.34479C14.6035 6.21274 14.0618 6.54042 13.9297 7.07669L15.8717 7.55489ZM20.6247 8.44215L19.8001 7.87638V7.87638L20.6247 8.44215ZM20.7717 6.1151L21.728 5.82269L21.7158 5.78262L21.7002 5.74371L20.7717 6.1151ZM20.9735 7.53334L19.9843 7.38669V7.38669L20.9735 7.53334ZM18.9449 1.39738L19.5627 0.611068V0.611067L18.9449 1.39738ZM1.0265 7.53334L0.0373124 7.67999L1.0265 7.53334ZM3.05507 1.39738L2.43725 0.611067L2.43725 0.611067L3.05507 1.39738ZM0.955699 3.58663L0.271972 5.82267L2.18456 6.40749L2.86828 4.17145L0.955699 3.58663ZM19.1317 4.17145L19.8154 6.40749L21.728 5.82267L21.0443 3.58663L19.1317 4.17145ZM5.57622 2H16.4238V0H5.57622V2ZM10.9993 9.47368C10.1672 9.47368 9.407 9.1182 8.85202 8.52651L7.39328 9.89475C8.3005 10.862 9.57785 11.4737 10.9993 11.4737V9.47368ZM16.7547 9.47368C15.9223 9.47368 15.1619 9.11798 14.6069 8.52597L13.1478 9.89386C14.0551 10.8616 15.3328 11.4737 16.7547 11.4737V9.47368ZM5.2453 9.47368C4.10864 9.47368 2.8464 8.81861 2.1999 7.87638L0.550765 9.00791C1.57537 10.5012 3.4585 11.4737 5.2453 11.4737V9.47368ZM8.17569 7.07669C7.82911 8.48416 6.62385 9.47368 5.2453 9.47368V11.4737C7.6208 11.4737 9.56989 9.77948 10.1177 7.55489L8.17569 7.07669ZM13.9297 7.07669C13.5831 8.48416 12.3779 9.47368 10.9993 9.47368V11.4737C13.3748 11.4737 15.3239 9.77948 15.8717 7.55489L13.9297 7.07669ZM19.8001 7.87638C19.1536 8.81861 17.8914 9.47368 16.7547 9.47368V11.4737C18.5415 11.4737 20.4246 10.5012 21.4492 9.00791L19.8001 7.87638ZM19.8433 6.48647L19.8433 6.48649L21.7002 5.74371L21.7002 5.74369L19.8433 6.48647ZM19.8154 6.4075C20.0026 7.01973 20.0233 7.12382 19.9843 7.38669L21.9627 7.67999C22.0752 6.92132 21.9108 6.42042 21.728 5.82269L19.8154 6.4075ZM21.4492 9.00791C21.5327 8.88623 21.6598 8.70657 21.7602 8.46884C21.8615 8.22903 21.9189 7.9754 21.9627 7.67998L19.9843 7.38669C19.9524 7.60204 19.9264 7.67015 19.9178 7.6907C19.9082 7.71335 19.8987 7.73271 19.8001 7.87638L21.4492 9.00791ZM21.0443 3.58663C20.8382 2.91273 20.6619 2.33132 20.4665 1.87366C20.2633 1.39748 20 0.95459 19.5627 0.611068L18.3271 2.1837C18.3957 2.23756 18.4914 2.34074 18.627 2.65866C18.7706 2.99511 18.9129 3.45584 19.1317 4.17145L21.0443 3.58663ZM16.4238 2C17.1206 2 17.5518 2.00179 17.875 2.04202C18.167 2.07836 18.2659 2.13558 18.3271 2.1837L19.5627 0.611067C19.1182 0.261801 18.6283 0.120336 18.122 0.0573291C17.647 -0.00179088 17.0705 0 16.4238 0V2ZM0.271972 5.82267C0.0891969 6.42041 -0.075161 6.92132 0.0373124 7.67999L2.01569 7.38669C1.97672 7.12381 1.99735 7.01973 2.18456 6.40749L0.271972 5.82267ZM2.1999 7.87638C2.10132 7.73271 2.09181 7.71335 2.08224 7.6907C2.07356 7.67015 2.04762 7.60204 2.01569 7.38669L0.0373124 7.67999C0.0811087 7.97541 0.138542 8.22903 0.239826 8.46884C0.34023 8.70657 0.467274 8.88623 0.550765 9.00791L2.1999 7.87638ZM2.86828 4.17145C3.0871 3.45584 3.22938 2.99511 3.37295 2.65866C3.50863 2.34074 3.60434 2.23757 3.6729 2.1837L2.43725 0.611067C2.00004 0.95459 1.73666 1.39748 1.53345 1.87366C1.33815 2.33132 1.16176 2.91273 0.955699 3.58663L2.86828 4.17145ZM5.57622 0C4.92948 0 4.35298 -0.00179088 3.87796 0.0573291C3.37171 0.120336 2.88177 0.261801 2.43725 0.611067L3.6729 2.1837C3.73414 2.13558 3.83298 2.07836 4.12496 2.04202C4.44818 2.00179 4.87936 2 5.57622 2V0Z" fill="#D3F36B"/>
</g>
</svg>
