<svg width="20" height="20" viewBox="0 0 20 20" fill="none" xmlns="http://www.w3.org/2000/svg">
<g id="doctor-svgrepo-com 1" clip-path="url(#clip0_1370_2422)">
<g id="Group">
<g id="Group_2">
<g id="Group_3">
<path id="Vector" d="M14.0371 14.8671C13.6691 14.6729 12.7634 14.159 12.3714 13.7905V12.7899C13.6259 12.0717 14.4822 10.7869 14.7537 9.21605C15.4642 9.01231 16.0826 8.34547 16.0826 7.73215C16.0826 7.11148 15.6163 6.69961 14.8454 6.61418V5.89266C14.8715 5.63203 15.0823 3.08758 13.5835 1.41309C12.7443 0.475469 11.5386 0 9.99988 0C8.46106 0 7.25527 0.475508 6.41594 1.41324C4.91723 3.08781 5.12828 5.63223 5.15438 5.8927V6.61414C4.38352 6.69957 3.91719 7.11145 3.91719 7.73211C3.91719 8.34566 4.53602 9.01281 5.24606 9.21617C5.51762 10.7873 6.37387 12.0719 7.62836 12.79V13.7906C7.23621 14.1593 6.32957 14.6736 5.96195 14.8675C1.94453 16.1723 1.85723 18.5529 1.85551 18.6538L1.85547 20H18.1443V18.6576C18.1438 18.5561 18.0862 16.1596 14.0371 14.8671ZM14.8454 7.23699C15.3957 7.31437 15.463 7.59902 15.463 7.73215C15.463 7.98457 15.1901 8.3282 14.8338 8.5184C14.841 8.39426 14.8454 7.23699 14.8454 7.23699ZM4.5368 7.73215C4.5368 7.59902 4.60406 7.31434 5.15438 7.23699C5.15438 7.23699 5.15875 8.39437 5.16602 8.51859C4.80988 8.32848 4.5368 7.98473 4.5368 7.73215ZM6.87992 1.82398C7.59656 1.02484 8.64629 0.619648 9.99988 0.619648C11.3533 0.619648 12.4029 1.0248 13.1196 1.82387C14.21 3.03965 14.2666 4.86609 14.2443 5.56066C11.8188 5.46375 9.9916 4.19363 9.97293 4.18051L9.48391 3.83379V4.4332C9.48391 4.68262 8.98277 5.04484 7.57637 5.31344C6.86652 5.44902 6.14852 5.51695 5.75504 5.54691C5.73391 4.84199 5.7968 3.03172 6.87992 1.82398ZM5.82605 8.91605C5.79152 8.66441 5.77402 8.40477 5.77402 8.14441V6.16727C6.17441 6.13773 6.9259 6.06816 7.68699 5.9232C8.91484 5.6893 9.66625 5.35418 9.96067 4.90578C10.6339 5.30348 12.2239 6.10363 14.2258 6.18043V8.14441C14.2258 8.40477 14.2083 8.66438 14.1737 8.91625C13.9639 10.453 13.1421 11.6978 11.9191 12.3315C11.3416 12.6308 10.6959 12.7825 9.99996 12.7825C9.30406 12.7825 8.65828 12.6308 8.0807 12.3315C6.85762 11.698 6.03586 10.4532 5.82605 8.91605ZM11.7518 13.0849V13.7978C11.5398 14.0191 10.8692 14.6381 9.99988 14.6381C9.13621 14.6381 8.4609 14.0179 8.24797 13.7972V13.0849C8.79238 13.2953 9.37945 13.4021 9.99988 13.4021C10.6203 13.4021 11.2073 13.2953 11.7518 13.0849ZM17.5247 19.3804H2.47508V18.663C2.47762 18.598 2.59336 16.6041 6.17762 15.4489C6.17762 15.4489 7.3502 14.8348 7.92746 14.3522C8.24512 14.651 8.87336 15.1353 9.69004 15.2379V18.8652H10.3097V15.2379C11.1264 15.1353 11.7546 14.651 12.0723 14.3522C12.6496 14.8348 13.8236 15.4494 13.8236 15.4494C14.8736 15.782 16.2868 16.4083 17.0565 17.5041C17.4985 18.1333 17.5237 18.6366 17.5247 18.6623L17.5247 19.3804Z" fill="#D3F36B" stroke="#D3F36B" stroke-width="0.8"/>
<path id="Vector_2" d="M9.4852 8.24832H10.515V9.27898H13.6086V6.59766H10.515V7.62871H9.4852V6.59766H6.3916V9.27898H9.4852V8.24832ZM11.1346 7.21727H12.989V8.65934H11.1346V7.21727ZM8.86555 8.65937H7.01121V7.2173H8.86555V8.65937Z" fill="#D3F36B"/>
<path id="Vector_3" d="M10.31 9.58789H9.69043V10.9284H10.8248V10.3087H10.31V9.58789Z" fill="#D3F36B"/>
<path id="Vector_4" d="M15.5665 17.5244H12.2676V18.144H15.5665V17.5244Z" fill="#D3F36B" stroke="#D3F36B" stroke-width="0.8"/>
<path id="Vector_5" d="M9.17512 15.6689H8.35059V16.2886H9.17512V15.6689Z" fill="#D3F36B" stroke="#D3F36B" stroke-width="0.8"/>
<path id="Vector_6" d="M9.17512 16.9062H8.35059V17.5259H9.17512V16.9062Z" fill="#D3F36B" stroke="#D3F36B" stroke-width="0.8"/>
<path id="Vector_7" d="M9.17512 18.1436H8.35059V18.7632H9.17512V18.1436Z" fill="#D3F36B" stroke="#D3F36B" stroke-width="0.8"/>
</g>
</g>
</g>
</g>
<defs>
<clipPath id="clip0_1370_2422">
<rect width="20" height="20" fill="white"/>
</clipPath>
</defs>
</svg>
