<svg width="5" height="7" viewBox="0 0 5 7" fill="none" xmlns="http://www.w3.org/2000/svg">
<g id="Layer 2">
<path id="Vector" d="M0.421104 4.4665L2.17782 6.23759C2.27195 6.33245 2.39959 6.38574 2.53268 6.38574C2.66577 6.38574 2.79342 6.33245 2.88754 6.23759L4.64426 4.4665C4.73569 4.37107 4.78628 4.24324 4.78514 4.11057C4.78399 3.97789 4.73121 3.85097 4.63815 3.75715C4.54509 3.66333 4.4192 3.61011 4.2876 3.60896C4.156 3.60781 4.02921 3.65881 3.93455 3.75099L3.0346 4.65829L3.0346 1.32562C3.0346 1.19141 2.98172 1.0627 2.88759 0.967805C2.79347 0.872908 2.6658 0.819595 2.53268 0.819595C2.39957 0.819595 2.2719 0.872908 2.17777 0.967805C2.08364 1.0627 2.03076 1.19141 2.03076 1.32562L2.03076 4.65829L1.13082 3.75099C1.03616 3.65881 0.90937 3.60781 0.777768 3.60896C0.646166 3.61011 0.520278 3.66333 0.427218 3.75715C0.334158 3.85097 0.281371 3.97789 0.280228 4.11057C0.279084 4.24324 0.329675 4.37107 0.421104 4.4665V4.4665Z" fill="#FF6154"/>
</g>
</svg>
