<svg width="18" height="16" viewBox="0 0 18 16" fill="none" xmlns="http://www.w3.org/2000/svg">
<g id="sms">
<path id="Vector" d="M5.31363 15.1543H12.7646C14.144 15.1543 15.2435 14.7493 15.9981 13.98C16.7523 13.211 17.149 12.0909 17.149 10.686V5.36822C17.149 3.96333 16.7523 2.84328 15.9981 2.07426C15.2435 1.30497 14.144 0.9 12.7646 0.9H5.31363C3.93429 0.9 2.83473 1.30497 2.08021 2.07426C1.32596 2.84328 0.929297 3.96333 0.929297 5.36822V10.686C0.929297 12.0909 1.32596 13.211 2.08021 13.98C2.83473 14.7493 3.93429 15.1543 5.31363 15.1543ZM2.24695 5.36822C2.24695 4.29609 2.50255 3.51893 3.00256 3.00913C3.5022 2.4997 4.26332 2.23953 5.31363 2.23953H12.7646C13.8149 2.23953 14.5761 2.4997 15.0757 3.00913C15.5757 3.51893 15.8313 4.29609 15.8313 5.36822V10.686C15.8313 11.7582 15.5757 12.5353 15.0757 13.0451C14.5761 13.5546 13.8149 13.8147 12.7646 13.8147H5.31363C4.26332 13.8147 3.5022 13.5546 3.00256 13.0451C2.50255 12.5353 2.24695 11.7582 2.24695 10.686V5.36822Z" fill="#D3F36B" stroke="#D3F36B" stroke-width="0.2"/>
<path id="Vector_2" d="M4.89978 6.26565L4.89978 6.26566L4.90043 6.26619L7.23221 8.1651C7.73686 8.58446 8.39357 8.78802 9.03928 8.78802C9.68468 8.78802 10.3417 8.58462 10.8392 8.16486L13.1697 6.26697C13.4601 6.04171 13.5019 5.61465 13.2762 5.32997C13.0547 5.0335 12.6322 4.99 12.3511 5.22253C12.351 5.22262 12.3509 5.22271 12.3508 5.2228L10.0193 7.12149L10.0191 7.12165C9.75689 7.33621 9.39864 7.44659 9.03555 7.44659C8.67246 7.44659 8.31421 7.33621 8.05201 7.12164L8.05183 7.12149L5.72032 5.2228C5.72021 5.22271 5.72009 5.22262 5.71998 5.22252C5.43597 4.98756 5.02244 5.04445 4.79596 5.32865C4.56682 5.61618 4.62121 6.03488 4.89978 6.26565Z" fill="#D3F36B" stroke="#D3F36B" stroke-width="0.2"/>
</g>
</svg>
