<svg width="22" height="22" viewBox="0 0 22 22" fill="none" xmlns="http://www.w3.org/2000/svg">
<g id="Logout">
<path id="Rectangle 2333" d="M14.3333 17.25C14.2516 19.3077 12.5368 21.0549 10.2396 20.9987C9.70516 20.9856 9.04459 20.7993 7.72347 20.4266C4.54401 19.5298 1.78395 18.0226 1.12173 14.6462C1 14.0255 1 13.3271 1 11.9303L1 10.0697C1 8.6729 1 7.9745 1.12173 7.35384C1.78395 3.97739 4.54402 2.47018 7.72347 1.57336C9.0446 1.20072 9.70516 1.01439 10.2396 1.00132C12.5368 0.945122 14.2516 2.6923 14.3333 4.75001" stroke="white" stroke-width="2" stroke-linecap="round"/>
<path id="Vector" d="M20.9996 11.0004H8.77734M20.9996 11.0004C20.9996 10.2224 18.7837 8.7688 18.2218 8.22266M20.9996 11.0004C20.9996 11.7785 18.7837 13.2321 18.2218 13.7782" stroke="white" stroke-width="2" stroke-linecap="round" stroke-linejoin="round"/>
</g>
</svg>
