<svg width="35" height="35" viewBox="0 0 35 35" fill="none" xmlns="http://www.w3.org/2000/svg">
<g id="notification">
<path id="Vector" d="M17.5296 4.24414C12.7025 4.24414 8.7796 8.16706 8.7796 12.9941V17.2087C8.7796 18.0983 8.40043 19.4546 7.94835 20.2129L6.27127 22.9983C5.23585 24.7191 5.95043 26.6296 7.84627 27.2712C14.1317 29.3712 20.9129 29.3712 27.1983 27.2712C28.9629 26.6879 29.7358 24.6025 28.7733 22.9983L27.0963 20.2129C26.6588 19.4546 26.2796 18.0983 26.2796 17.2087V12.9941C26.2796 8.18164 22.3421 4.24414 17.5296 4.24414Z" stroke="#D3F36B" stroke-width="1.5" stroke-miterlimit="10" stroke-linecap="round"/>
<circle id="Ellipse 54" cx="19.0195" cy="5.93945" r="4" fill="#D3F36B"/>
<path id="Vector_2" d="M20.2269 4.6666C19.7748 4.53535 19.3081 4.43327 18.8269 4.37493C17.4269 4.19993 16.0852 4.30202 14.8311 4.6666C15.254 3.58743 16.304 2.8291 17.529 2.8291C18.754 2.8291 19.804 3.58743 20.2269 4.6666Z" stroke="#D3F36B" stroke-width="1.5" stroke-miterlimit="10" stroke-linecap="round" stroke-linejoin="round"/>
<path id="Vector_3" d="M21.9043 27.7959C21.9043 30.2021 19.9355 32.1709 17.5293 32.1709C16.3335 32.1709 15.2251 31.6751 14.4376 30.8876C13.6501 30.1001 13.1543 28.9917 13.1543 27.7959" stroke="#D3F36B" stroke-width="1.5" stroke-miterlimit="10"/>
</g>
</svg>
