<svg width="22" height="22" viewBox="0 0 22 22" fill="none" xmlns="http://www.w3.org/2000/svg">
<g id="Users">
<path id="Vector" d="M17.5045 19.8237H17.9457C18.9805 19.8237 19.8036 19.2689 20.5427 18.4933C22.4202 16.5227 18.0067 14.5293 16.5 14.5293" stroke="#D3F36B" stroke-width="2" stroke-linecap="round" stroke-linejoin="round"/>
<path id="Ellipse 1381" d="M14 3.43344C14.2271 3.38045 14.4629 3.35254 14.7048 3.35254C16.5247 3.35254 18 4.93271 18 6.88195C18 8.83119 16.5247 10.4114 14.7048 10.4114C14.4629 10.4114 14.2271 10.3834 14 10.3305" stroke="#D3F36B" stroke-width="2" stroke-linecap="round"/>
<path id="Vector_2" d="M3.78256 15.2487C2.68218 15.992 -0.202939 17.5097 1.55429 19.409C2.41269 20.3367 3.36872 21.0002 4.57068 21.0002H11.4293C12.6313 21.0002 13.5873 20.3367 14.4457 19.409C16.2029 17.5097 13.3178 15.992 12.2174 15.2487C9.63708 13.5056 6.36292 13.5056 3.78256 15.2487Z" fill="#D3F36B" stroke="#D3F36B" stroke-width="2" stroke-linecap="round" stroke-linejoin="round"/>
<path id="Ellipse 1381_2" d="M12 5.70588C12 8.30487 10.2091 10.4118 8 10.4118C5.79086 10.4118 4 8.30487 4 5.70588C4 3.1069 5.79086 1 8 1C10.2091 1 12 3.1069 12 5.70588Z" fill="#D3F36B" stroke="#D3F36B" stroke-width="2"/>
</g>
</svg>
