<svg width="20" height="20" viewBox="0 0 20 20" fill="none" xmlns="http://www.w3.org/2000/svg">
<g id="Group 11411">
<g id="Vector">
<mask id="path-1-inside-1_1221_2523" fill="white">
<path d="M0.999718 20H4.99852C5.13009 20.0007 5.26051 19.9755 5.38231 19.9258C5.50412 19.876 5.6149 19.8027 5.70831 19.71L17.7047 7.71262C17.7984 7.61967 17.8728 7.5091 17.9236 7.38726C17.9743 7.26543 18.0004 7.13475 18.0004 7.00277C18.0004 6.87079 17.9743 6.74011 17.9236 6.61827C17.8728 6.49644 17.7984 6.38586 17.7047 6.29292L13.7059 2.29378C13.613 2.20007 13.5024 2.1257 13.3806 2.07494C13.2588 2.02418 13.1281 1.99805 12.9961 1.99805C12.8642 1.99805 12.7335 2.02418 12.6117 2.07494C12.4898 2.1257 12.3793 2.20007 12.2863 2.29378L0.28993 14.2912C0.197276 14.3846 0.123973 14.4954 0.0742233 14.6172C0.0244736 14.739 -0.000743956 14.8695 1.67093e-05 15.001V19.0002C1.67093e-05 19.2653 0.105342 19.5196 0.292822 19.7071C0.480303 19.8946 0.734581 20 0.999718 20ZM1.99942 15.411L12.9961 4.41333L15.5854 7.00277L4.58865 18.0004H1.99942V15.411Z"/>
</mask>
<path d="M0.999718 20H4.99852C5.13009 20.0007 5.26051 19.9755 5.38231 19.9258C5.50412 19.876 5.6149 19.8027 5.70831 19.71L17.7047 7.71262C17.7984 7.61967 17.8728 7.5091 17.9236 7.38726C17.9743 7.26543 18.0004 7.13475 18.0004 7.00277C18.0004 6.87079 17.9743 6.74011 17.9236 6.61827C17.8728 6.49644 17.7984 6.38586 17.7047 6.29292L13.7059 2.29378C13.613 2.20007 13.5024 2.1257 13.3806 2.07494C13.2588 2.02418 13.1281 1.99805 12.9961 1.99805C12.8642 1.99805 12.7335 2.02418 12.6117 2.07494C12.4898 2.1257 12.3793 2.20007 12.2863 2.29378L0.28993 14.2912C0.197276 14.3846 0.123973 14.4954 0.0742233 14.6172C0.0244736 14.739 -0.000743956 14.8695 1.67093e-05 15.001V19.0002C1.67093e-05 19.2653 0.105342 19.5196 0.292822 19.7071C0.480303 19.8946 0.734581 20 0.999718 20ZM1.99942 15.411L12.9961 4.41333L15.5854 7.00277L4.58865 18.0004H1.99942V15.411Z" fill="#E5E5E5"/>
<path d="M4.99852 20L5.01009 18H4.99852V20ZM5.70831 19.71L7.11682 21.13L7.12258 21.1242L5.70831 19.71ZM17.7047 7.71262L16.2963 6.29266L16.2905 6.29846L17.7047 7.71262ZM17.7047 6.29292L16.2904 7.70709L16.2963 7.71286L17.7047 6.29292ZM13.7059 2.29378L12.2859 3.70214L12.2916 3.70794L13.7059 2.29378ZM12.2863 2.29378L13.7006 3.70795L13.7064 3.70213L12.2863 2.29378ZM0.28993 14.2912L-1.12435 12.877L-1.1301 12.8828L0.28993 14.2912ZM1.67093e-05 15.001H2.00005L1.99998 14.9895L1.67093e-05 15.001ZM1.67093e-05 19.0002H-1.99998H1.67093e-05ZM1.99942 15.411L0.585146 13.9968L-0.000580793 14.5826V15.411H1.99942ZM12.9961 4.41333L14.4104 2.99917L12.9961 1.58478L11.5819 2.99917L12.9961 4.41333ZM15.5854 7.00277L16.9996 8.41692L18.4137 7.00277L16.9996 5.58861L15.5854 7.00277ZM4.58865 18.0004V20.0004H5.41712L6.00292 19.4146L4.58865 18.0004ZM1.99942 18.0004H-0.000580793V20.0004H1.99942V18.0004ZM0.999718 22H4.99852V18H0.999718V22ZM4.98696 21.9999C5.38176 22.0022 5.77313 21.9265 6.13862 21.7772L4.62601 18.0743C4.7479 18.0245 4.87842 17.9992 5.01009 18L4.98696 21.9999ZM6.13862 21.7772C6.50412 21.6279 6.83653 21.408 7.11681 21.1299L4.29981 18.2901C4.39327 18.1974 4.50411 18.1241 4.62601 18.0743L6.13862 21.7772ZM7.12258 21.1242L19.119 9.12677L16.2905 6.29846L4.29404 18.2959L7.12258 21.1242ZM19.1132 9.13256C19.3943 8.85369 19.6175 8.52191 19.7698 8.15636L16.0773 6.61816C16.1281 6.49628 16.2025 6.38565 16.2963 6.29268L19.1132 9.13256ZM19.7698 8.15636C19.922 7.79081 20.0004 7.39875 20.0004 7.00277H16.0004C16.0004 6.87076 16.0266 6.74004 16.0773 6.61816L19.7698 8.15636ZM20.0004 7.00277C20.0004 6.60679 19.922 6.21472 19.7698 5.84918L16.0773 7.38737C16.0266 7.26549 16.0004 7.13478 16.0004 7.00277H20.0004ZM19.7698 5.84918C19.6175 5.48362 19.3943 5.15185 19.1132 4.87298L16.2963 7.71286C16.2025 7.61988 16.1281 7.50926 16.0773 7.38737L19.7698 5.84918ZM19.119 4.87877L15.1202 0.879627L12.2916 3.70794L16.2905 7.70708L19.119 4.87877ZM15.126 0.885438C14.8471 0.604264 14.5154 0.381082 14.1498 0.228774L12.6114 3.9211C12.4895 3.87031 12.3788 3.79588 12.2859 3.70213L15.126 0.885438ZM14.1498 0.228774C13.7843 0.0764662 13.3922 -0.00195312 12.9961 -0.00195312V3.99805C12.8641 3.99805 12.7333 3.97189 12.6114 3.9211L14.1498 0.228774ZM12.9961 -0.00195312C12.6001 -0.00195312 12.208 0.0764662 11.8425 0.228774L13.3809 3.9211C13.259 3.97189 13.1282 3.99805 12.9961 3.99805V-0.00195312ZM11.8425 0.228774C11.4769 0.381082 11.1451 0.604264 10.8663 0.885438L13.7064 3.70213C13.6134 3.79588 13.5028 3.87031 13.3809 3.9211L11.8425 0.228774ZM10.8721 0.879627L-1.12434 12.877L1.7042 15.7054L13.7006 3.70794L10.8721 0.879627ZM-1.1301 12.8828C-1.4081 13.1631 -1.62804 13.4955 -1.77731 13.861L1.92575 15.3734C1.87598 15.4953 1.80265 15.6061 1.70996 15.6996L-1.1301 12.8828ZM-1.77731 13.861C-1.92657 14.2265 -2.00223 14.6178 -1.99995 15.0126L1.99998 14.9895C2.00074 15.1211 1.97552 15.2516 1.92575 15.3734L-1.77731 13.861ZM-1.99998 15.001V19.0002H2.00002V15.001H-1.99998ZM-1.99998 19.0002C-1.99998 19.7957 -1.68399 20.5587 -1.12145 21.1213L1.7071 18.293C1.89467 18.4806 2.00002 18.735 2.00002 19.0002H-1.99998ZM-1.12145 21.1213C-0.558907 21.6839 0.204098 22 0.999718 22V18C1.26506 18 1.51951 18.1054 1.7071 18.293L-1.12145 21.1213ZM3.41369 16.8251L14.4104 5.82748L11.5819 2.99917L0.585146 13.9968L3.41369 16.8251ZM11.5819 5.82748L14.1711 8.41692L16.9996 5.58861L14.4104 2.99917L11.5819 5.82748ZM14.1711 5.58861L3.17437 16.5862L6.00292 19.4146L16.9996 8.41692L14.1711 5.58861ZM4.58865 16.0004H1.99942V20.0004H4.58865V16.0004ZM3.99942 18.0004V15.411H-0.000580793V18.0004H3.99942Z" fill="#D3F36B" mask="url(#path-1-inside-1_1221_2523)"/>
</g>
<path id="Vector_2" d="M19.0002 5.00299L18.9948 5.00844L18.9921 5.00579L14.9933 1.00665C14.9926 1.00593 14.9922 1.00493 14.9922 1.00388C14.9922 1.00282 14.9926 1.00183 14.9933 1.00111C14.994 1.00039 14.995 1 14.996 1L14.9974 1.00028L15.3801 0.0764155L14.9974 1.00028L14.9986 1.00111L15.7058 0.294028L14.9986 1.00111L18.9974 5.00025L18.9974 5.00025L19.0002 5.00299Z" fill="#353535" stroke="#D3F36B" stroke-width="2"/>
</g>
</svg>
