<svg width="22" height="22" viewBox="0 0 22 22" fill="none" xmlns="http://www.w3.org/2000/svg">
<g id="setting-01">
<path id="Vector" d="M20.4922 6.13358L19.986 5.27698C19.6031 4.62915 19.4117 4.30523 19.086 4.17607C18.7603 4.0469 18.3919 4.14883 17.6551 4.35267L16.4036 4.69637C15.9333 4.80212 15.4398 4.74213 15.0103 4.52698L14.6648 4.33261C14.2965 4.10262 14.0132 3.76352 13.8564 3.36493L13.5139 2.36754C13.2887 1.70753 13.1761 1.37752 12.908 1.18876C12.6399 1 12.2838 1 11.5717 1H10.4283C9.71616 1 9.36008 1 9.09201 1.18876C8.82393 1.37752 8.71133 1.70753 8.48612 2.36754L8.1436 3.36493C7.9868 3.76352 7.70352 4.10262 7.33523 4.33261L6.98971 4.52698C6.56023 4.74213 6.06675 4.80212 5.59638 4.69637L4.34486 4.35267C3.60811 4.14883 3.23973 4.0469 2.91402 4.17607C2.5883 4.30523 2.39687 4.62915 2.014 5.27698L1.50776 6.13358C1.14888 6.74083 0.969439 7.04446 1.00426 7.36768C1.03909 7.6909 1.27931 7.95137 1.75975 8.47231L2.81723 9.62501C3.07569 9.94404 3.25918 10.5 3.25918 10.9998C3.25918 11.5 3.07575 12.0558 2.81725 12.3749L1.75976 13.5276C1.27931 14.0485 1.03909 14.309 1.00427 14.6322C0.969439 14.9555 1.14888 15.2591 1.50776 15.8663L2.01399 16.7229C2.39684 17.3707 2.5883 17.6947 2.91402 17.8238C3.23974 17.953 3.60812 17.8511 4.34488 17.6472L5.59634 17.3035C6.06678 17.1977 6.56036 17.2578 6.9899 17.473L7.33537 17.6674C7.70358 17.8974 7.9868 18.2364 8.14357 18.635L8.48612 19.6325C8.71133 20.2925 8.82393 20.6225 9.09201 20.8112C9.36008 21 9.71616 21 10.4283 21H11.5717C12.2838 21 12.6399 21 12.908 20.8112C13.1761 20.6225 13.2887 20.2925 13.5139 19.6325L13.8564 18.635C14.0132 18.2364 14.2964 17.8974 14.6646 17.6674L15.0101 17.473C15.4396 17.2578 15.9332 17.1977 16.4037 17.3035L17.6551 17.6472C18.3919 17.8511 18.7603 17.953 19.086 17.8238C19.4117 17.6947 19.6032 17.3707 19.986 16.7229L20.4922 15.8663C20.8511 15.2591 21.0306 14.9555 20.9957 14.6322C20.9609 14.309 20.7207 14.0485 20.2402 13.5276L19.1827 12.3749C18.9243 12.0558 18.7408 11.5 18.7408 10.9998C18.7408 10.5 18.9243 9.94404 19.1828 9.62501L20.2402 8.47231C20.7207 7.95137 20.9609 7.6909 20.9957 7.36768C21.0306 7.04446 20.8511 6.74083 20.4922 6.13358Z" stroke="#D3F36B" stroke-width="2" stroke-linecap="round"/>
<path id="Ellipse 1200" d="M14.5457 10.9922C14.5457 12.9252 12.9385 14.4922 10.9559 14.4922C8.97339 14.4922 7.36621 12.9252 7.36621 10.9922C7.36621 9.05919 8.97339 7.49219 10.9559 7.49219C12.9385 7.49219 14.5457 9.05919 14.5457 10.9922Z" stroke="#D3F36B" stroke-width="2"/>
</g>
</svg>
