<svg width="5" height="7" viewBox="0 0 5 7" fill="none" xmlns="http://www.w3.org/2000/svg">
<g id="Layer 2">
<path id="Vector" d="M0.421104 3.45435C0.515228 3.54921 0.64287 3.60251 0.775961 3.60251C0.909053 3.60251 1.0367 3.54921 1.13082 3.45435L2.03076 2.54705L2.03076 5.87972C2.03076 6.01392 2.08364 6.14263 2.17777 6.23753C2.2719 6.33243 2.39956 6.38574 2.53268 6.38574C2.6658 6.38574 2.79347 6.33243 2.88759 6.23753C2.98172 6.14263 3.0346 6.01392 3.0346 5.87972L3.0346 2.54705L3.93455 3.45435C4.02921 3.54653 4.156 3.59753 4.2876 3.59638C4.4192 3.59522 4.54509 3.54201 4.63815 3.44819C4.73121 3.35436 4.78399 3.22745 4.78514 3.09477C4.78628 2.96209 4.73569 2.83427 4.64426 2.73883L2.88754 0.967751C2.79342 0.872887 2.66577 0.819595 2.53268 0.819595C2.39959 0.819595 2.27195 0.872887 2.17783 0.967751L0.421104 2.73883C0.327008 2.83373 0.274148 2.96241 0.274148 3.09659C0.274148 3.23077 0.327008 3.35946 0.421104 3.45435V3.45435Z" fill="#00A389"/>
</g>
</svg>
