<svg width="50" height="40" viewBox="0 0 50 40" fill="none" xmlns="http://www.w3.org/2000/svg">
<g id="Iconsax/Linear/video">
<rect width="50" height="40" fill="white"/>
<path id="Vector" d="M26.1045 34.0335H12.9378C6.35449 34.0335 4.16699 30.5335 4.16699 27.0168V12.9835C4.16699 7.7168 6.35449 5.9668 12.9378 5.9668H26.1045C32.6878 5.9668 34.8753 7.7168 34.8753 12.9835V27.0168C34.8753 32.2835 32.667 34.0335 26.1045 34.0335Z" stroke="#D3F36B" stroke-width="5" stroke-linecap="round" stroke-linejoin="round"/>
<path id="Vector_2" d="M40.6663 28.5002L34.8747 25.2502V14.7336L40.6663 11.4836C43.4997 9.90022 45.833 10.8669 45.833 13.6502V26.3502C45.833 29.1336 43.4997 30.1002 40.6663 28.5002ZM23.958 18.3336C24.7868 18.3336 25.5817 18.0702 26.1677 17.6013C26.7538 17.1325 27.083 16.4966 27.083 15.8336C27.083 15.1705 26.7538 14.5346 26.1677 14.0658C25.5817 13.5969 24.7868 13.3336 23.958 13.3336C23.1292 13.3336 22.3343 13.5969 21.7483 14.0658C21.1622 14.5346 20.833 15.1705 20.833 15.8336C20.833 16.4966 21.1622 17.1325 21.7483 17.6013C22.3343 18.0702 23.1292 18.3336 23.958 18.3336Z" stroke="#D3F36B" stroke-width="5" stroke-linecap="round" stroke-linejoin="round"/>
</g>
</svg>
